<?xml version="1.0" encoding="utf-8"?>
<svg xmlns="http://www.w3.org/2000/svg" height="1440pt" preserveAspectRatio="xMidYMid meet" viewBox="0 0 1920 1440" width="1920pt">
  <path d="m1872 14023c-23-49-140-305-261-571s-221-486-224-488c-2-2-23 15-47 37-95 91-271 143-404 121-192-32-310-154-293-303 19-160 207-289 422-289 95 0 159 17 235 62 56 34 114 105 127 157 3 14 136 311 295 660 158 348 288 641 288 651 0 25-33 50-67 50-28 0-33-6-71-87zm4634 6c-14-17-33-55-42-86-17-60-15-102 13-190l16-53-42-45c-133-145-115-320 38-366 38-11 122-9 152 5 20 9 37-33 46-115 9-88-34-149-123-174-41-11-44-13-19-14 44-1 109 32 135 70 31 43 38 127 17 200-15 50-15 55 2 74 45 49 53 111 24 172-18 38-76 72-124 73-21 0-29 8-42 41l-17 42 31 35c18 20 38 52 47 71 21 51 21 146-2 204-22 60-30 56-16-8 8-34 8-63 0-100-11-53-61-145-79-145-6 0-20 32-32 71-31 103-17 191 42 250 10 10 15 19 10 19s-21-14-35-31zm13-480c-52-49-51-117 4-145l32-17-22 25c-13 13-23 36-23 49 0 32 47 80 59 61 19-30 84-203 78-208-14-14-85-23-118-14-74 20-119 77-119 150 0 54 20 99 66 150l38 42 17-33c17-33 16-33-12-60zm151-46c36-33 49-88 30-133-7-16-16-30-19-30-4 0-23 39-42 88-19 48-35 90-37 95-9 19 41 4 68-20zm-2915 532c-231-50-389-198-400-372-3-51-6-57-27-59-13-2-211-6-441-10-415-6-417-6-422-28-2-11-18-192-36-401-17-209-33-381-34-383-1-1-16 5-34 14-64 32-183 16-249-33-137-103-68-262 113-263 99 0 206 65 219 133 3 12 18 178 34 370 16 191 31 349 33 351s177 7 387 12l384 7-6-54c-4-30-15-157-26-283s-21-231-23-232c-1-2-23 4-47 12-122 43-285-33-306-140-13-73 52-148 141-161 96-15 219 38 250 108 9 20 24 148 40 342 36 434 54 601 63 575 37-108 194-146 281-67 30 28 61 94 61 132 0 46-34 109-75 140-51 39-130 46-181 16-20-12-38-20-40-18-9 8 58 87 101 121 99 75 222 99 365 72 235-44 350-172 350-391 0-303-257-624-718-895-40-23-71-45-68-47 6-6 174 61 261 105 202 100 426 287 560 466 101 135 139 240 138 381-2 196-97 357-261 439-99 50-265 68-387 41zm-2842-195c-69-42-82-134-27-191 72-75 188-46 215 53 28 107-93 196-188 138zm3610-20c-71-29-47-130 30-130 66 0 93 78 41 119-29 23-38 24-71 11zm728-66c-26-21-31-33-31-69s5-48 32-70c90-76 202 53 119 136-37 37-79 38-120 3zm362 4c-5-7-36-116-68-243-32-126-67-263-78-303l-20-73-21 19c-53 49-170 54-246 11-104-58-107-180-7-228 82-40 197-22 256 39 31 32 38 53 91 263 32 126 61 231 64 234 6 6 153-129 170-156 12-20 0-77-23-110-27-37-26-45 2-30 98 51 167 119 167 163 0 10-36 53-79 96-63 62-88 96-120 162-22 45-44 101-48 122-9 42-24 55-40 34zm-5120-260c-45-50-36-115 19-144 88-46 174 71 103 141-32 33-93 34-122 3zm3999-28c-49-20-54-95-7-126 73-48 147 61 79 115-29 23-38 24-72 11zm-2386-361c-20-16-26-29-26-58 0-47 24-71 72-71 39 0 63 20 73 62 6 22 1 33-23 58-36 35-60 38-96 9zm4345-23c-20-23-5-65 24-72 35-9 57 12 53 50-3 27-7 31-34 34-19 2-36-3-43-12zm-3816-498c-86-67-51-193 57-205 37-4 49-1 76 22 17 14 37 43 43 64 30 100-94 184-176 119zm-1943-413c-97-30-166-106-178-197-11-82 39-138 127-138 33 0 47 6 75 34s34 42 34 75c0 81-55 137-126 129-49-6-42 7 23 38 112 55 251 27 365-75 61-54 82-108 76-198-4-87-41-162-116-239-111-114-260-188-492-246-150-37-142-47 23-28 235 27 484 135 601 260 195 208 108 513-166 586-66 17-189 17-246-1zm621-305c-12-5-24-18-28-30-14-44 55-81 85-46 29 36-13 93-57 76zm-117-236c-19-19-20-35-3-56 19-24 43-28 66-12 23 17 28 53 9 72-17 17-54 15-72-4zm511-196c-32-17-79-55-105-83-81-88-113-176-139-373l-8-63-81-33c-45-17-104-47-132-65-67-43-145-128-168-185l-19-44-100-6c-55-4-183-7-285-9l-185-2-27-300c-15-165-27-311-27-324-1-18-5-22-19-16-44 19-90 23-132 14-85-19-148-90-136-154 20-104 188-128 284-40l36 33 27 296c14 163 28 299 32 302 3 3 125 8 271 11 231 5 266 4 266-9 0-8 15-35 33-61l33-46-14-168c-8-92-15-169-17-171-1-1-18 5-38 13-52 22-96 19-155-11-65-32-97-80-89-131 8-46 29-68 84-89 39-15 53-16 102-6 41 9 73 9 111 2 42-8 67-7 114 5 147 37 219 140 250 358l11 78 50 23c111 51 182 185 155 295-15 62-72 131-135 161l-45 22v89c0 69 3 89 14 89 37 0 158 74 205 125 97 107 148 266 124 386-6 31-8 27-19-40-18-104-64-193-143-272-48-48-81-71-121-86l-55-21-3 51c-4 64 22 193 53 262 27 63 92 137 154 177 58 36 77 35 101-4 23-38 27-30 5 11-13 25-34 42-53 41-4 0-33-15-65-32zm-247-698c0-68-1-70-25-70-32 0-93-25-118-48-29-26-57-87-57-123 0-35 32-94 55-103 19-7 19 3 0 28-20 27-19 75 4 112 20 32 74 64 110 64 20 0 21-4 21-144 0-78-3-171-6-205l-7-61h-42c-61 0-128 26-177 69l-42 38 12 115c18 170 17 178-13 178-14 0-25 5-25 11 0 26 120 129 196 167 112 58 114 57 114-28zm95-194c18-14 40-40 49-59 21-46 20-132-3-182-17-38-81-105-101-105-5 0-7 51-4 123 6 156 14 247 21 247 4 0 21-11 38-24zm-415-156c0-5-2-10-4-10-3 0-8 5-11 10-3 6-1 10 4 10 6 0 11-4 11-10zm156-210c31-11 77-20 101-20 37 0 44-3 39-17-2-10-7-45-11-78-10-86-40-174-75-222-44-59-134-103-212-103-55 0-76 11-43 24 30 11 44 72 59 261 9 105 16 196 16 203 0 10 10 8 34-7 19-12 60-30 92-41zm-369-771c-11-6-25-26-33-45-32-76 44-152 120-120 40 17 56 42 56 86 0 65-86 112-143 79zm456-91c-5-7-71-148-146-313-74-165-154-340-177-389l-41-89-32 30c-150 144-431 104-477-67-23-85 30-169 138-222 60-30 75-33 152-32 95 1 138 15 194 64 19 17 40 46 46 65 6 18 101 231 211 471 109 241 199 446 199 456 0 16-27 38-48 38-5 0-14-6-19-12zm-897-167c-39-26-55-57-56-104 0-78 50-127 131-127 35 0 47 6 81 40 39 38 40 42 36 91-7 70-46 110-115 116-36 3-55-1-77-16zm17603-160c-16-16-29-39-29-51 0-27 52-80 79-80 34 0 74 43 74 80 0 24-7 40-27 57-36 31-61 29-97-6zm122-268c-93-357-151-583-151-588 0-4-13 3-28 14-47 33-115 46-176 32-127-28-189-123-136-208 54-89 220-97 310-14 39 36 40 39 100 274 33 131 60 240 60 243s40-32 90-78c102-95 110-118 65-195l-26-43 25 10c43 16 101 56 133 93l31 35 11-24c13-30 67-64 101-64 56 0 120 65 120 122 0 53-66 118-120 118-34 0-79-28-100-62-15-25-20-28-25-16-3 8-26 30-50 47-67 48-164 209-184 306-10 45-38 44-50-2zm-17777-558c-4-8 39-136 95-285 55-149 101-272 101-274s-22-6-50-8c-168-16-253-256-105-297 98-27 221 64 232 171 3 36-9 78-75 248-44 113-78 206-77 208 2 2 49-2 106-10 126-15 139-24 148-103l6-59 29 60c39 79 46 154 17 183-15 15-34 21-63 21-94 1-227 54-316 127-35 28-43 32-48 18zm17867-395c-51-11-116-43-149-73-58-53-86-160-58-215 33-64 129-83 185-37 62 53 62 137-1 191-26 21-39 25-80 22-42-3-46-1-31 10 57 43 99 57 173 57 65 0 84-4 140-32 90-44 138-88 166-147 60-128 0-290-154-419-104-88-316-175-524-217-32-6-58-14-58-17 0-9 176 7 265 24 208 39 463 171 537 280 124 179 95 394-68 502-97 64-237 93-343 71zm568-341c-17-33 3-69 39-69 33 0 52 16 52 45s-19 45-52 45c-18 0-31-7-39-21zm-93-221c-21-29-20-41 2-61 37-34 82-15 82 35 0 47-57 65-84 26zm-497-425c-71-35-150-117-188-195-32-66-61-177-61-239 0-88-5-94-97-130-212-82-335-229-336-401 0-52 6-78 27-121 57-118 214-216 344-217 31 0 33-2 28-27-3-16-8-49-12-75-6-48-7-48-44-48h-37l-7-52c-3-29-6-72-6-95 0-31-6-48-22-64-80-76-256-80-351-7-16 12-14 13 24 13 52 0 79 30 79 85 0 71-80 105-136 57-87-75 43-221 209-234 52-5 74-1 125 20l63 25-6-57c-3-31-14-154-25-275-11-120-21-220-22-222-2-2-24 4-48 12-90 32-199 3-269-70-27-27-35-45-38-83-8-91 63-152 176-153 75 0 125 17 176 62 47 42 62 77 64 152 0 27 12 179 26 338s25 295 25 302c0 11 50 15 233 20 438 11 552 11 551 1-1-5-12-136-24-290-13-154-24-281-26-283-1-2-17 4-35 13-25 13-50 16-108 13-84-5-121-20-169-69-85-87-54-197 67-238 80-26 185 0 248 63 23 23 44 53 47 66 2 14 16 174 31 355 15 182 30 362 35 400 5 39 12 103 15 143l6 74-303-6c-167-4-343-9-392-12l-88-6 7 64c9 89 12 95 49 108 90 29 176 155 176 255 0 28-9 68-19 90-21 46-88 111-137 131l-34 14v88 87l73 29c90 36 189 130 230 218 40 84 60 182 51 248l-7 55-16-76c-25-112-64-183-145-265-55-55-83-75-124-88-29-10-55-16-58-13-10 10 16 205 36 262 29 84 85 161 154 212 71 52 99 55 126 11 23-38 27-30 5 11-13 26-33 41-54 41-4 0-32-12-62-27zm-259-706v-72l-50-12c-57-14-89-35-120-80-43-63-35-138 19-187 24-22 27-12 6 24-24 42-18 85 16 125 31 34 98 63 120 49 10-6 5-306-7-383l-5-34-58 6c-100 9-191 70-239 161-35 68-37 170-3 234 46 89 129 158 254 214 34 14 63 27 65 27 1 1 2-32 2-72zm98-203c40-31 71-94 72-145 0-43-24-116-48-144-19-23-82-69-86-64-5 6 17 379 22 379 3 0 21-12 40-26zm588 215c-38-30-49-64-36-105 22-65 95-84 149-38 89 75-22 214-113 143zm-1427-771c-7-13-90-194-185-403-153-335-194-415-194-376 0 15-83 69-132 87-65 23-187 20-245-6-61-27-91-55-114-105-25-54-24-82 6-141 28-56 86-104 157-130 66-25 182-22 244 5 69 30 96 61 137 156 19 44 116 259 216 478 99 219 181 407 181 417 0 18-27 40-49 40-6 0-16-10-22-22zm-795-1273c-3-8 53-169 124-357l129-343-51-6c-64-7-98-21-148-60-141-113-118-319 36-319h39l-6-63c-3-34-14-157-23-272-10-116-18-211-19-213-1-1-27 5-57 14l-56 17-17 61c-23 85-60 149-116 201-60 57-94 60-139 13-160-170-186-417-75-712l26-68-84-87c-139-147-198-254-219-401-29-193 56-356 225-435 128-61 277-66 406-16l50 20 20-67c59-199 66-322 22-414-70-147-239-233-397-203l-39 7 31 13c66 28 95 110 58 164-59 84-194 43-194-60 0-47 31-86 96-119 67-34 214-36 287-3 111 51 192 137 223 239 29 95 16 255-35 418l-18 59 39 39c22 22 52 65 66 97 36 78 38 211 3 288-46 103-143 163-273 171l-77 5-44 101-45 101 68 72c41 42 80 96 96 131 25 53 33 60 69 70 88 23 155 99 155 174-1 86 54 664 64 675 8 8 120 15 391 21 209 5 381 9 382 8 2-1-9-128-22-282-14-153-25-284-25-291 0-9-9-8-35 3-79 32-211 9-273-49-52-49-67-123-35-177 46-79 189-101 292-45 77 42 99 80 106 185 7 95 50 572 65 720 5 52 10 112 10 133v38l-352-7-353-7-98 259c-53 142-97 262-97 265 0 5 119-10 229-29 60-10 84-44 91-125l5-62 24 45c57 107 75 205 46 247-18 26-72 43-133 43-89 0-289 90-363 163-31 30-47 34-55 12zm-186-1335c35-25 44-40 62-97 11-38 21-92 23-122l2-54-40-14c-79-26-145-101-145-164 0-38 31-88 69-111 20-12 38-23 40-25 7-5-52-84-87-114-19-17-38-27-43-22-17 17-77 201-89 273-28 166 19 350 115 454 31 33 43 33 93-4zm-76-992 35-83-26-14c-95-50-153-179-122-273 14-42 65-92 110-107 31-10 63-4 33 6-31 11-73 58-83 93-20 67 20 154 88 189 12 6 26 11 31 11 14 0 202-448 202-481 0-14-62-38-127-50-146-27-329 59-391 184-83 166-31 363 146 550 30 31 58 57 62 57s23-37 42-82zm269-201c78-40 115-93 131-189 8-53 8-74-6-119-14-50-59-121-68-109-2 3-21 52-43 110-21 58-60 156-87 218-26 63-48 116-48 118 0 15 68-1 121-29zm1529 2172c-186-27-352-133-416-266-24-49-28-71-29-143 0-98 14-133 71-176 52-40 136-45 194-13 141 79 110 292-46 327-44 10-121-5-150-29-38-31 21 53 69 98 70 66 143 94 253 101 161 8 322-44 399-130 62-68 89-138 93-248 9-213-91-414-307-622-114-110-202-177-371-282-58-36-112-70-120-75-27-18 132 40 218 80 171 79 301 171 457 321 227 218 317 397 302 597-11 138-59 242-151 329-66 63-151 104-259 126-82 17-121 18-207 5zm720-239c-26-26-26-81-2-103 44-40 122-7 122 51 0 60-78 94-120 52zm-33-358c-40-44-7-122 51-122 60 0 94 78 52 120-26 26-81 26-103 2zm-351-934c-12-18-415-900-504-1102l-22-48-54 49c-99 91-213 129-362 121-109-6-184-33-248-90-66-57-90-108-90-188-1-117 70-210 211-276 235-111 526-23 583 175 4 14 138 314 299 667 160 352 291 650 291 661 0 49-77 72-104 31zm219-106c-28-6-62-39-70-69-12-51 37-113 90-113 33 0 73 30 84 63 23 69-34 133-104 119zm-3660-256c-478-158-490-163-487-186 5-31 181-859 188-882 4-15-4-17-66-17-85 0-157-29-215-86-135-136-78-305 105-305 152 1 289 123 278 248-3 26-42 221-88 434s-82 389-79 391c9 6 835 277 845 277 5 0 41-147 79-328l70-328h-70c-83 0-142-23-203-79-108-97-109-235-1-293 149-80 398 77 376 236-3 20-43 213-89 427-47 215-90 419-97 455-24 123-43 200-49 199-4 0-227-73-497-163zm2378-152c-20-10-40-32-53-59-18-37-20-50-11-82 24-89 120-129 192-80 42 28 59 60 59 113 0 93-100 151-187 108zm-3568-104c-3-5-60-136-125-291-66-155-122-284-125-287s-15 4-28 16c-60 56-188 72-264 34-57-30-83-66-83-116 0-54 28-98 84-131 112-66 263-32 306 69 201 463 290 689 279 702-13 16-35 18-44 4zm-1275-446c-46-42-73-116-69-189 3-43 1-46-41-74-85-54-120-107-120-180 0-74 74-141 160-145l40-1v-53c0-101-46-151-137-153-42 0-45-1-23-10 14-6 41-7 60-4 76 15 120 75 120 165 0 48 3 56 36 84 31 27 37 39 41 82 6 62-13 98-62 115-27 10-34 19-39 48-5 27-2 38 10 46 41 25 76 60 93 94 25 48 36 124 22 148-9 15-10 13-11-18 0-79-98-208-123-162-14 24-1 115 22 161 11 22 33 49 48 61 15 11 25 21 21 21-5 0-26-16-48-36zm-51-339c1-6-12-16-29-22-37-14-57-54-44-90 5-15 16-28 24-31 12-4 13-2 3 9-26 26-2 89 33 89 16 0 21-18 30-114l7-79-47 5c-81 10-136 83-117 156 10 36 64 98 106 120 17 9 21 7 27-11 3-12 6-27 7-32zm68-77c31-29 32-95 2-127-12-12-22-21-24-19-6 8-15 168-8 168 4 0 17-10 30-22zm1280 2c-82-65-73-176 19-220 54-26 91-20 139 22 57 49 56 135 0 188-37 34-120 40-158 10zm-628-155c-55-30-62-116-12-155 87-68 203 51 131 135-28 32-83 41-119 20zm-917-147c-16-16-15-28 4-49s51-14 59 13c12 37-35 64-63 36z" transform="matrix(.1 0 0 -.1 0 1440)" stroke="none" stroke-width="2" vector-effect="non-scaling-stroke" style=""/>
</svg>