<svg width="356" height="45" viewBox="0 0 356 45" fill="none" xmlns="http://www.w3.org/2000/svg">
<path d="M336.256 13.72H339.016L344.824 19.216L339.016 24.736H336.256L342.064 19.216L336.256 13.72Z" fill="black"/>
<rect x="326" y="5" width="29" height="29" rx="14" stroke="black" stroke-width="2"/>
<path d="M272.912 12.64V10.648H277.424V28H275.216V12.64H272.912ZM280.6 12.64V10.648H285.112V28H282.904V12.64H280.6Z" fill="black"/>
<path d="M262 13.8C262 9.32 262 7.08 262.872 5.368C263.639 3.86277 264.863 2.63898 266.368 1.872C268.08 1 270.32 1 274.8 1H285.2C289.68 1 291.92 1 293.632 1.872C295.137 2.63898 296.361 3.86277 297.128 5.368C298 7.08 298 9.32 298 13.8V24.2C298 28.68 298 30.92 297.128 32.632C296.361 34.1372 295.137 35.361 293.632 36.128C291.92 37 289.68 37 285.2 37H274.8C270.32 37 268.08 37 266.368 36.128C264.863 35.361 263.639 34.1372 262.872 32.632C262 30.92 262 28.68 262 24.2V13.8Z" stroke="black" stroke-width="2" stroke-linecap="round" stroke-linejoin="round"/>
<path d="M229.544 35.144C229.128 35.144 228.776 35 228.488 34.712C228.2 34.424 228.056 34.072 228.056 33.656C228.056 33.24 228.2 32.888 228.488 32.6C228.776 32.312 229.128 32.168 229.544 32.168C229.944 32.168 230.28 32.312 230.552 32.6C230.84 32.888 230.984 33.24 230.984 33.656C230.984 34.072 230.84 34.424 230.552 34.712C230.28 35 229.944 35.144 229.544 35.144ZM234.583 35.144C234.167 35.144 233.815 35 233.527 34.712C233.239 34.424 233.095 34.072 233.095 33.656C233.095 33.24 233.239 32.888 233.527 32.6C233.815 32.312 234.167 32.168 234.583 32.168C234.983 32.168 235.319 32.312 235.591 32.6C235.879 32.888 236.023 33.24 236.023 33.656C236.023 34.072 235.879 34.424 235.591 34.712C235.319 35 234.983 35.144 234.583 35.144ZM239.622 35.144C239.206 35.144 238.854 35 238.566 34.712C238.278 34.424 238.134 34.072 238.134 33.656C238.134 33.24 238.278 32.888 238.566 32.6C238.854 32.312 239.206 32.168 239.622 32.168C240.022 32.168 240.358 32.312 240.63 32.6C240.918 32.888 241.062 33.24 241.062 33.656C241.062 34.072 240.918 34.424 240.63 34.712C240.358 35 240.022 35.144 239.622 35.144Z" fill="black"/>
<path d="M184.44 16.016C184.552 14.544 185.12 13.392 186.144 12.56C187.168 11.728 188.496 11.312 190.128 11.312C191.216 11.312 192.152 11.512 192.936 11.912C193.736 12.296 194.336 12.824 194.736 13.496C195.152 14.168 195.36 14.928 195.36 15.776C195.36 16.768 195.072 17.624 194.496 18.344C193.936 19.064 193.2 19.528 192.288 19.736V19.856C193.328 20.112 194.152 20.616 194.76 21.368C195.368 22.12 195.672 23.104 195.672 24.32C195.672 25.232 195.464 26.056 195.048 26.792C194.632 27.512 194.008 28.08 193.176 28.496C192.344 28.912 191.344 29.12 190.176 29.12C188.48 29.12 187.088 28.68 186 27.8C184.912 26.904 184.304 25.64 184.176 24.008H186.288C186.4 24.968 186.792 25.752 187.464 26.36C188.136 26.968 189.032 27.272 190.152 27.272C191.272 27.272 192.12 26.984 192.696 26.408C193.288 25.816 193.584 25.056 193.584 24.128C193.584 22.928 193.184 22.064 192.384 21.536C191.584 21.008 190.376 20.744 188.76 20.744H188.208V18.92H188.784C190.256 18.904 191.368 18.664 192.12 18.2C192.872 17.72 193.248 16.984 193.248 15.992C193.248 15.144 192.968 14.464 192.408 13.952C191.864 13.44 191.08 13.184 190.056 13.184C189.064 13.184 188.264 13.44 187.656 13.952C187.048 14.464 186.688 15.152 186.576 16.016H184.44Z" fill="black"/>
<path d="M172 14.8C172 10.32 172 8.08 172.872 6.368C173.639 4.86277 174.863 3.63898 176.368 2.872C178.08 2 180.32 2 184.8 2H195.2C199.68 2 201.92 2 203.632 2.872C205.137 3.63898 206.361 4.86277 207.128 6.368C208 8.08 208 10.32 208 14.8V25.2C208 29.68 208 31.92 207.128 33.632C206.361 35.1372 205.137 36.361 203.632 37.128C201.92 38 199.68 38 195.2 38H184.8C180.32 38 178.08 38 176.368 37.128C174.863 36.361 173.639 35.1372 172.872 33.632C172 31.92 172 29.68 172 25.2V14.8Z" stroke="black" stroke-width="2" stroke-linecap="round" stroke-linejoin="round"/>
<path d="M127.224 27.248C129.256 25.616 130.848 24.28 132 23.24C133.152 22.184 134.12 21.088 134.904 19.952C135.704 18.8 136.104 17.672 136.104 16.568C136.104 15.528 135.848 14.712 135.336 14.12C134.84 13.512 134.032 13.208 132.912 13.208C131.824 13.208 130.976 13.552 130.368 14.24C129.776 14.912 129.456 15.816 129.408 16.952H127.296C127.36 15.16 127.904 13.776 128.928 12.8C129.952 11.824 131.272 11.336 132.888 11.336C134.536 11.336 135.84 11.792 136.8 12.704C137.776 13.616 138.264 14.872 138.264 16.472C138.264 17.8 137.864 19.096 137.064 20.36C136.28 21.608 135.384 22.712 134.376 23.672C133.368 24.616 132.08 25.72 130.512 26.984H138.768V28.808H127.224V27.248Z" fill="black"/>
<path d="M115 14.8C115 10.32 115 8.08 115.872 6.368C116.639 4.86277 117.863 3.63898 119.368 2.872C121.08 2 123.32 2 127.8 2H138.2C142.68 2 144.92 2 146.632 2.872C148.137 3.63898 149.361 4.86277 150.128 6.368C151 8.08 151 10.32 151 14.8V25.2C151 29.68 151 31.92 150.128 33.632C149.361 35.1372 148.137 36.361 146.632 37.128C144.92 38 142.68 38 138.2 38H127.8C123.32 38 121.08 38 119.368 37.128C117.863 36.361 116.639 35.1372 115.872 33.632C115 31.92 115 29.68 115 25.2V14.8Z" stroke="black" stroke-width="2" stroke-linecap="round" stroke-linejoin="round"/>
<path d="M72.912 13.64V11.648H77.424V29H75.216V13.64H72.912Z" fill="black"/>
<path d="M58 14.8C58 10.32 58 8.08 58.872 6.368C59.639 4.86277 60.8628 3.63898 62.368 2.872C64.08 2 66.32 2 70.8 2H81.2C85.68 2 87.92 2 89.632 2.872C91.1372 3.63898 92.361 4.86277 93.128 6.368C94 8.08 94 10.32 94 14.8V25.2C94 29.68 94 31.92 93.128 33.632C92.361 35.1372 91.1372 36.361 89.632 37.128C87.92 38 85.68 38 81.2 38H70.8C66.32 38 64.08 38 62.368 37.128C60.8628 36.361 59.639 35.1372 58.872 33.632C58 31.92 58 29.68 58 25.2V14.8Z" stroke="black" stroke-width="2" stroke-linecap="round" stroke-linejoin="round"/>
<path d="M19.744 15.72H16.984L11.176 21.216L16.984 26.736H19.744L13.936 21.216L19.744 15.72Z" fill="black"/>
<rect x="-1" y="1" width="29" height="29" rx="14" transform="matrix(-1 0 0 1 29 6)" stroke="black" stroke-width="2"/>
</svg>
